RBDS020runT35_grf
version=1
nRows=37
nColumns=19
inDegrees=no
endheader
time	ground_force_r_vx	ground_force_r_vy	ground_force_r_vz	ground_force_r_px	ground_force_r_py	ground_force_r_pz	ground_force_r_mx	ground_force_r_my	ground_force_r_mz	ground_force_l_vx	ground_force_l_vy	ground_force_l_vz	ground_force_l_px	ground_force_l_py	ground_force_l_pz	ground_force_l_mx	ground_force_l_my	ground_force_l_mz
     14.99900000	      0.00000000	      0.00000000	      0.00000000	      0.00000000	      0.00000000	      0.00000000	      0.00000000	      0.00000000	      0.00000000	      5.99747767	   1520.88507937	     57.40661489	      2.06915409	      0.00000000	      0.98599188	     -0.00000000	     11.48210690	      0.00000000
     15.00000000	      0.00000000	      0.00000000	      0.00000000	      0.00000000	      0.00000000	      0.00000000	      0.00000000	      0.00000000	      0.00000000	     11.75072706	   1514.22614561	     57.13806704	      2.06630084	      0.00000000	      0.98588448	     -0.00000000	     11.48543056	      0.00000000
     15.00100000	      0.00000000	      0.00000000	      0.00000000	      0.00000000	      0.00000000	      0.00000000	      0.00000000	      0.00000000	      0.00000000	     17.40876020	   1506.36434769	     56.74697202	      2.06344991	      0.00000000	      0.98579085	     -0.00000000	     11.48217673	      0.00000000
     15.00200000	      0.00000000	      0.00000000	      0.00000000	      0.00000000	      0.00000000	      0.00000000	      0.00000000	      0.00000000	      0.00000000	     23.06679333	   1498.50254978	     56.35587699	      2.06059898	      0.00000000	      0.98569721	     -0.00000000	     11.47892290	      0.00000000
     15.00300000	      0.00000000	      0.00000000	      0.00000000	      0.00000000	      0.00000000	      0.00000000	      0.00000000	      0.00000000	      0.00000000	     28.72482647	   1490.64075186	     55.96478197	      2.05774805	      0.00000000	      0.98560357	     -0.00000000	     11.47566907	      0.00000000
     15.00400000	      0.00000000	      0.00000000	      0.00000000	      0.00000000	      0.00000000	      0.00000000	      0.00000000	      0.00000000	      0.00000000	     34.28180252	   1481.99766219	     55.49437972	      2.05489703	      0.00000000	      0.98551950	     -0.00000000	     11.46702468	      0.00000000
     15.00500000	      0.00000000	      0.00000000	      0.00000000	      0.00000000	      0.00000000	      0.00000000	      0.00000000	      0.00000000	      0.00000000	     39.78825003	   1472.96392665	     54.98432386	      2.05204597	      0.00000000	      0.98544022	     -0.00000000	     11.45568500	      0.00000000
     15.00600000	      0.00000000	      0.00000000	      0.00000000	      0.00000000	      0.00000000	      0.00000000	      0.00000000	      0.00000000	      0.00000000	     45.29469755	   1463.93019111	     54.47426799	      2.04919490	      0.00000000	      0.98536093	     -0.00000000	     11.44434532	      0.00000000
     15.00700000	      0.00000000	      0.00000000	      0.00000000	      0.00000000	      0.00000000	      0.00000000	      0.00000000	      0.00000000	      0.00000000	     50.73316945	   1454.51948116	     53.92629415	      2.04634263	      0.00000000	      0.98528659	     -0.00000000	     11.42982444	      0.00000000
     15.00800000	      0.00000000	      0.00000000	      0.00000000	      0.00000000	      0.00000000	      0.00000000	      0.00000000	      0.00000000	      0.00000000	     56.03569016	   1444.35482240	     53.30248433	      2.04348792	      0.00000000	      0.98522212	     -0.00000000	     11.40894116	      0.00000000
     15.00900000	      0.00000000	      0.00000000	      0.00000000	      0.00000000	      0.00000000	      0.00000000	      0.00000000	      0.00000000	      0.00000000	     61.33821086	   1434.19016364	     52.67867451	      2.04063321	      0.00000000	      0.98515766	     -0.00000000	     11.38805788	      0.00000000
     15.01000000	      0.00000000	      0.00000000	      0.00000000	      0.00000000	      0.00000000	      0.00000000	      0.00000000	      0.00000000	      0.00000000	     66.64073156	   1424.02550488	     52.05486470	      2.03777850	      0.00000000	      0.98509319	     -0.00000000	     11.36717461	      0.00000000
     15.01100000	      0.00000000	      0.00000000	      0.00000000	      0.00000000	      0.00000000	      0.00000000	      0.00000000	      0.00000000	      0.00000000	     71.69080358	   1412.78001308	     51.32429535	      2.03491607	      0.00000000	      0.98504387	     -0.00000000	     11.33541994	      0.00000000
     15.01200000	      0.00000000	      0.00000000	      0.00000000	      0.00000000	      0.00000000	      0.00000000	      0.00000000	      0.00000000	      0.00000000	     76.74087559	   1401.53452129	     50.59372601	      2.03205365	      0.00000000	      0.98499455	     -0.00000000	     11.30366527	      0.00000000
     15.01300000	      0.00000000	      0.00000000	      0.00000000	      0.00000000	      0.00000000	      0.00000000	      0.00000000	      0.00000000	      0.00000000	     81.79094761	   1390.28902950	     49.86315667	      2.02919122	      0.00000000	      0.98494522	     -0.00000000	     11.27191060	      0.00000000
     15.01400000	      0.00000000	      0.00000000	      0.00000000	      0.00000000	      0.00000000	      0.00000000	      0.00000000	      0.00000000	      0.00000000	     86.64276601	   1378.36172348	     49.06734365	      2.02632089	      0.00000000	      0.98490610	     -0.00000000	     11.23215961	      0.00000000
     15.01500000	      0.00000000	      0.00000000	      0.00000000	      0.00000000	      0.00000000	      0.00000000	      0.00000000	      0.00000000	      0.00000000	     91.39545759	   1366.09351035	     48.23890879	      2.02344661	      0.00000000	      0.98487207	     -0.00000000	     11.18841046	      0.00000000
     15.01600000	      0.00000000	      0.00000000	      0.00000000	      0.00000000	      0.00000000	      0.00000000	      0.00000000	      0.00000000	      0.00000000	     96.14814917	   1353.82529722	     47.41047393	      2.02057234	      0.00000000	      0.98483804	     -0.00000000	     11.14466131	      0.00000000
     15.01700000	      0.00000000	      0.00000000	      0.00000000	      0.00000000	      0.00000000	      0.00000000	      0.00000000	      0.00000000	      0.00000000	    100.78787789	   1341.23789303	     46.55302444	      2.01769289	      0.00000000	      0.98480910	     -0.00000000	     11.09662999	      0.00000000
     15.01800000	      0.00000000	      0.00000000	      0.00000000	      0.00000000	      0.00000000	      0.00000000	      0.00000000	      0.00000000	      0.00000000	    105.20168087	   1328.01210672	     45.63754568	      2.01480310	      0.00000000	      0.98479032	     -0.00000000	     11.04003436	      0.00000000
     15.01900000	      0.00000000	      0.00000000	      0.00000000	      0.00000000	      0.00000000	      0.00000000	      0.00000000	      0.00000000	      0.00000000	    109.61548386	   1314.78632040	     44.72206692	      2.01191330	      0.00000000	      0.98477154	     -0.00000000	     10.98343872	      0.00000000
     15.02000000	      0.00000000	      0.00000000	      0.00000000	      0.00000000	      0.00000000	      0.00000000	      0.00000000	      0.00000000	      0.00000000	    114.02928685	   1301.56053409	     43.80658816	      2.00902351	      0.00000000	      0.98475276	     -0.00000000	     10.92684309	      0.00000000
     15.02100000	      0.00000000	      0.00000000	      0.00000000	      0.00000000	      0.00000000	      0.00000000	      0.00000000	      0.00000000	      0.00000000	    118.06607894	   1287.44852383	     42.81673892	      2.00611548	      0.00000000	      0.98474896	     -0.00000000	     10.85687505	      0.00000000
     15.02200000	      0.00000000	      0.00000000	      0.00000000	      0.00000000	      0.00000000	      0.00000000	      0.00000000	      0.00000000	      0.00000000	    122.10287103	   1273.33651356	     41.82688967	      2.00320745	      0.00000000	      0.98474516	     -0.00000000	     10.78690702	      0.00000000
     15.02300000	      0.00000000	      0.00000000	      0.00000000	      0.00000000	      0.00000000	      0.00000000	      0.00000000	      0.00000000	      0.00000000	    126.13966312	   1259.22450330	     40.83704043	      2.00029942	      0.00000000	      0.98474136	     -0.00000000	     10.71693898	      0.00000000
     15.02400000	      0.00000000	      0.00000000	      0.00000000	      0.00000000	      0.00000000	      0.00000000	      0.00000000	      0.00000000	      0.00000000	    129.90204415	   1244.57294748	     39.80716856	      1.99737833	      0.00000000	      0.98474721	     -0.00000000	     10.63795042	      0.00000000
     15.02500000	      0.00000000	      0.00000000	      0.00000000	      0.00000000	      0.00000000	      0.00000000	      0.00000000	      0.00000000	      0.00000000	    133.52721966	   1229.65161888	     38.75728538	      1.99445072	      0.00000000	      0.98475789	     -0.00000000	     10.55445160	      0.00000000
     15.02600000	      0.00000000	      0.00000000	      0.00000000	      0.00000000	      0.00000000	      0.00000000	      0.00000000	      0.00000000	      0.00000000	    137.15239517	   1214.73029027	     37.70740221	      1.99152311	      0.00000000	      0.98476856	     -0.00000000	     10.47095277	      0.00000000
     15.02700000	      0.00000000	      0.00000000	      0.00000000	      0.00000000	      0.00000000	      0.00000000	      0.00000000	      0.00000000	      0.00000000	    140.63010468	   1199.56652536	     36.64274103	      1.98858909	      0.00000000	      0.98478382	     -0.00000000	     10.38302224	      0.00000000
     15.02800000	      0.00000000	      0.00000000	      0.00000000	      0.00000000	      0.00000000	      0.00000000	      0.00000000	      0.00000000	      0.00000000	    143.81288218	   1183.91788783	     35.54852386	      1.98564228	      0.00000000	      0.98480824	     -0.00000000	     10.28622829	      0.00000000
     15.02900000	      0.00000000	      0.00000000	      0.00000000	      0.00000000	      0.00000000	      0.00000000	      0.00000000	      0.00000000	      0.00000000	    146.99565968	   1168.26925029	     34.45430669	      1.98269547	      0.00000000	      0.98483265	     -0.00000000	     10.18943434	      0.00000000
     15.03000000	      0.00000000	      0.00000000	      0.00000000	      0.00000000	      0.00000000	      0.00000000	      0.00000000	      0.00000000	      0.00000000	    150.17843718	   1152.62061276	     33.36008952	      1.97974865	      0.00000000	      0.98485707	     -0.00000000	     10.09264039	      0.00000000
     15.03100000	      0.00000000	      0.00000000	      0.00000000	      0.00000000	      0.00000000	      0.00000000	      0.00000000	      0.00000000	      0.00000000	    152.89232398	   1136.33148694	     32.23820267	      1.97678501	      0.00000000	      0.98489424	     -0.00000000	      9.98319169	      0.00000000
     15.03200000	      0.00000000	      0.00000000	      0.00000000	      0.00000000	      0.00000000	      0.00000000	      0.00000000	      0.00000000	      0.00000000	    155.60621078	   1120.04236112	     31.11631581	      1.97382137	      0.00000000	      0.98493142	     -0.00000000	      9.87374299	      0.00000000
     15.03300000	      0.00000000	      0.00000000	      0.00000000	      0.00000000	      0.00000000	      0.00000000	      0.00000000	      0.00000000	      0.00000000	    158.32009758	   1103.75323530	     29.99442896	      1.97085773	      0.00000000	      0.98496860	      0.00000000	      9.76429429	      0.00000000
     15.03400000	      0.00000000	      0.00000000	      0.00000000	      0.00000000	      0.00000000	      0.00000000	      0.00000000	      0.00000000	      0.00000000	    160.70697535	   1087.09807919	     28.86552993	      1.96788588	      0.00000000	      0.98501350	      0.00000000	      9.64710207	      0.00000000
     15.03500000	      0.00000000	      0.00000000	      0.00000000	      0.00000000	      0.00000000	      0.00000000	      0.00000000	      0.00000000	      0.00000000	    162.93034862	   1070.25990793	     27.73312481	      1.96490992	      0.00000000	      0.98506225	      0.00000000	      9.52603809	      0.00000000
